<svg width="0" height="0" class="hidden">
    <symbol xmlns="http://www.w3.org/2000/svg" viewBox="0 0 448 512" id="alipay">
        <path d="M377.74 32H70.26C31.41 32 0 63.41 0 102.26v307.48C0 448.59 31.41 480 70.26 480h307.48c38.52 0 69.76-31.08 70.26-69.6-45.96-25.62-110.59-60.34-171.6-88.44-32.07 43.97-84.14 81-148.62 81-70.59 0-93.73-45.3-97.04-76.37-3.97-39.01 14.88-81.5 99.52-81.5 35.38 0 79.35 10.25 127.13 24.96 16.53-30.09 26.45-60.34 26.45-60.34h-178.2v-16.7h92.08v-31.24H88.28v-19.01h109.44V92.34h50.92v50.42h109.44v19.01H248.63v31.24h88.77s-15.21 46.62-38.35 90.92c48.93 16.7 100.01 36.04 148.62 52.74V102.26C447.83 63.57 416.43 32 377.74 32zM47.28 322.95c.99 20.17 10.25 53.73 69.93 53.73 52.07 0 92.58-39.68 117.87-72.9-44.63-18.68-84.48-31.41-109.44-31.41-67.45 0-79.35 33.06-78.36 50.58z"></path>
    </symbol>
    <symbol xmlns="http://www.w3.org/2000/svg" viewBox="0 0 512 512" id="facebook">
        <path d="M504 256C504 119 393 8 256 8S8 119 8 256c0 123.78 90.69 226.38 209.25 245V327.69h-63V256h63v-54.64c0-62.15 37-96.48 93.67-96.48 27.14 0 55.52 4.84 55.52 4.84v61h-31.28c-30.8 0-40.41 19.12-40.41 38.73V256h68.78l-11 71.69h-57.78V501C413.31 482.38 504 379.78 504 256z"></path>
    </symbol>
    <symbol xmlns="http://www.w3.org/2000/svg" viewBox="0 0 480 512" id="github-alt">
        <path d="M186.1 328.7c0 20.9-10.9 55.1-36.7 55.1s-36.7-34.2-36.7-55.1 10.9-55.1 36.7-55.1 36.7 34.2 36.7 55.1zM480 278.2c0 31.9-3.2 65.7-17.5 95-37.9 76.6-142.1 74.8-216.7 74.8-75.8 0-186.2 2.7-225.6-74.8-14.6-29-20.2-63.1-20.2-95 0-41.9 13.9-81.5 41.5-113.6-5.2-15.8-7.7-32.4-7.7-48.8 0-21.5 4.9-32.3 14.6-51.8 45.3 0 74.3 9 108.8 36 29-6.9 58.8-10 88.7-10 27 0 54.2 2.9 80.4 9.2 34-26.7 63-35.2 107.8-35.2 9.8 19.5 14.6 30.3 14.6 51.8 0 16.4-2.6 32.7-7.7 48.2 27.5 32.4 39 72.3 39 114.2zm-64.3 50.5c0-43.9-26.7-82.6-73.5-82.6-18.9 0-37 3.4-56 6-14.9 2.3-29.8 3.2-45.1 3.2-15.2 0-30.1-.9-45.1-3.2-18.7-2.6-37-6-56-6-46.8 0-73.5 38.7-73.5 82.6 0 87.8 80.4 101.3 150.4 101.3h48.2c70.3 0 150.6-13.4 150.6-101.3zm-82.6-55.1c-25.8 0-36.7 34.2-36.7 55.1s10.9 55.1 36.7 55.1 36.7-34.2 36.7-55.1-10.9-55.1-36.7-55.1z"></path>
    </symbol>
    <symbol xmlns="http://www.w3.org/2000/svg" viewBox="0 0 496 512" id="github">
        <path d="M165.9 397.4c0 2-2.3 3.6-5.2 3.6-3.3.3-5.6-1.3-5.6-3.6 0-2 2.3-3.6 5.2-3.6 3-.3 5.6 1.3 5.6 3.6zm-31.1-4.5c-.7 2 1.3 4.3 4.3 4.9 2.6 1 5.6 0 6.2-2s-1.3-4.3-4.3-5.2c-2.6-.7-5.5.3-6.2 2.3zm44.2-1.7c-2.9.7-4.9 2.6-4.6 4.9.3 2 2.9 3.3 5.9 2.6 2.9-.7 4.9-2.6 4.6-4.6-.3-1.9-3-3.2-5.9-2.9zM244.8 8C106.1 8 0 113.3 0 252c0 110.9 69.8 205.8 169.5 239.2 12.8 2.3 17.3-5.6 17.3-12.1 0-6.2-.3-40.4-.3-61.4 0 0-70 15-84.7-29.8 0 0-11.4-29.1-27.8-36.6 0 0-22.9-15.7 1.6-15.4 0 0 24.9 2 38.6 25.8 21.9 38.6 58.6 27.5 72.9 20.9 2.3-16 8.8-27.1 16-33.7-55.9-6.2-112.3-14.3-112.3-110.5 0-27.5 7.6-41.3 23.6-58.9-2.6-6.5-11.1-33.3 2.6-67.9 20.9-6.5 69 27 69 27 20-5.6 41.5-8.5 62.8-8.5s42.8 2.9 62.8 8.5c0 0 48.1-33.6 69-27 13.7 34.7 5.2 61.4 2.6 67.9 16 17.7 25.8 31.5 25.8 58.9 0 96.5-58.9 104.2-114.8 110.5 9.2 7.9 17 22.9 17 46.4 0 33.7-.3 75.4-.3 83.6 0 6.5 4.6 14.4 17.3 12.1C428.2 457.8 496 362.9 496 252 496 113.3 383.5 8 244.8 8zM97.2 352.9c-1.3 1-1 3.3.7 5.2 1.6 1.6 3.9 2.3 5.2 1 1.3-1 1-3.3-.7-5.2-1.6-1.6-3.9-2.3-5.2-1zm-10.8-8.1c-.7 1.3.3 2.9 2.3 3.9 1.6 1 3.6.7 4.3-.7.7-1.3-.3-2.9-2.3-3.9-2-.6-3.6-.3-4.3.7zm32.4 35.6c-1.6 1.3-1 4.3 1.3 6.2 2.3 2.3 5.2 2.6 6.5 1 1.3-1.3.7-4.3-1.3-6.2-2.2-2.3-5.2-2.6-6.5-1zm-11.4-14.7c-1.6 1-1.6 3.6 0 5.9 1.6 2.3 4.3 3.3 5.6 2.3 1.6-1.3 1.6-3.9 0-6.2-1.4-2.3-4-3.3-5.6-2z"></path>
    </symbol>
    <symbol xmlns="http://www.w3.org/2000/svg" viewBox="0 0 448 512" id="linkedin">
        <path d="M416 32H31.9C14.3 32 0 46.5 0 64.3v383.4C0 465.5 14.3 480 31.9 480H416c17.6 0 32-14.5 32-32.3V64.3c0-17.8-14.4-32.3-32-32.3zM135.4 416H69V202.2h66.5V416zm-33.2-243c-21.3 0-38.5-17.3-38.5-38.5S80.9 96 102.2 96c21.2 0 38.5 17.3 38.5 38.5 0 21.3-17.2 38.5-38.5 38.5zm282.1 243h-66.4V312c0-24.8-.5-56.7-34.5-56.7-34.6 0-39.9 27-39.9 54.9V416h-66.4V202.2h63.7v29.2h.9c8.9-16.8 30.6-34.5 62.9-34.5 67.2 0 79.7 44.3 79.7 101.9V416z"></path>
    </symbol>
    <symbol xmlns="http://www.w3.org/2000/svg" viewBox="0 0 512 512" id="twitter">
        <path d="M459.37 151.716c.325 4.548.325 9.097.325 13.645 0 138.72-105.583 298.558-298.558 298.558-59.452 0-114.68-17.219-161.137-47.106 8.447.974 16.568 1.299 25.34 1.299 49.055 0 94.213-16.568 130.274-44.832-46.132-.975-84.792-31.188-98.112-72.772 6.498.974 12.995 1.624 19.818 1.624 9.421 0 18.843-1.3 27.614-3.573-48.081-9.747-84.143-51.98-84.143-102.985v-1.299c13.969 7.797 30.214 12.67 47.431 13.319-28.264-18.843-46.781-51.005-46.781-87.391 0-19.492 5.197-37.36 14.294-52.954 51.655 63.675 129.3 105.258 216.365 109.807-1.624-7.797-2.599-15.918-2.599-24.04 0-57.828 46.782-104.934 104.934-104.934 30.213 0 57.502 12.67 76.67 33.137 23.715-4.548 46.456-13.32 66.599-25.34-7.798 24.366-24.366 44.833-46.132 57.827 21.117-2.273 41.584-8.122 60.426-16.243-14.292 20.791-32.161 39.308-52.628 54.253z"></path>
    </symbol>
    <symbol xmlns="http://www.w3.org/2000/svg" viewBox="0 0 512 512" id="weibo">
        <path d="M407 177.6c7.6-24-13.4-46.8-37.4-41.7-22 4.8-28.8-28.1-7.1-32.8 50.1-10.9 92.3 37.1 76.5 84.8-6.8 21.2-38.8 10.8-32-10.3zM214.8 446.7C108.5 446.7 0 395.3 0 310.4c0-44.3 28-95.4 76.3-143.7C176 67 279.5 65.8 249.9 161c-4 13.1 12.3 5.7 12.3 6 79.5-33.6 140.5-16.8 114 51.4-3.7 9.4 1.1 10.9 8.3 13.1 135.7 42.3 34.8 215.2-169.7 215.2zm143.7-146.3c-5.4-55.7-78.5-94-163.4-85.7-84.8 8.6-148.8 60.3-143.4 116s78.5 94 163.4 85.7c84.8-8.6 148.8-60.3 143.4-116zM347.9 35.1c-25.9 5.6-16.8 43.7 8.3 38.3 72.3-15.2 134.8 52.8 111.7 124-7.4 24.2 29.1 37 37.4 12 31.9-99.8-55.1-195.9-157.4-174.3zm-78.5 311c-17.1 38.8-66.8 60-109.1 46.3-40.8-13.1-58-53.4-40.3-89.7 17.7-35.4 63.1-55.4 103.4-45.1 42 10.8 63.1 50.2 46 88.5zm-86.3-30c-12.9-5.4-30 .3-38 12.9-8.3 12.9-4.3 28 8.6 34 13.1 6 30.8.3 39.1-12.9 8-13.1 3.7-28.3-9.7-34zm32.6-13.4c-5.1-1.7-11.4.6-14.3 5.4-2.9 5.1-1.4 10.6 3.7 12.9 5.1 2 11.7-.3 14.6-5.4 2.8-5.2 1.1-10.9-4-12.9z"></path>
    </symbol>
    <symbol xmlns="http://www.w3.org/2000/svg" viewBox="0 0 576 512" id="weixin">
        <path d="M385.2 167.6c6.4 0 12.6.3 18.8 1.1C387.4 90.3 303.3 32 207.7 32 100.5 32 13 104.8 13 197.4c0 53.4 29.3 97.5 77.9 131.6l-19.3 58.6 68-34.1c24.4 4.8 43.8 9.7 68.2 9.7 6.2 0 12.1-.3 18.3-.8-4-12.9-6.2-26.6-6.2-40.8-.1-84.9 72.9-154 165.3-154zm-104.5-52.9c14.5 0 24.2 9.7 24.2 24.4 0 14.5-9.7 24.2-24.2 24.2-14.8 0-29.3-9.7-29.3-24.2.1-14.7 14.6-24.4 29.3-24.4zm-136.4 48.6c-14.5 0-29.3-9.7-29.3-24.2 0-14.8 14.8-24.4 29.3-24.4 14.8 0 24.4 9.7 24.4 24.4 0 14.6-9.6 24.2-24.4 24.2zM563 319.4c0-77.9-77.9-141.3-165.4-141.3-92.7 0-165.4 63.4-165.4 141.3S305 460.7 397.6 460.7c19.3 0 38.9-5.1 58.6-9.9l53.4 29.3-14.8-48.6C534 402.1 563 363.2 563 319.4zm-219.1-24.5c-9.7 0-19.3-9.7-19.3-19.6 0-9.7 9.7-19.3 19.3-19.3 14.8 0 24.4 9.7 24.4 19.3 0 10-9.7 19.6-24.4 19.6zm107.1 0c-9.7 0-19.3-9.7-19.3-19.6 0-9.7 9.7-19.3 19.3-19.3 14.5 0 24.4 9.7 24.4 19.3.1 10-9.9 19.6-24.4 19.6z"></path>
    </symbol>
</svg>